<?xml version="1.0" standalone="no"?>
<!DOCTYPE svg PUBLIC "-//W3C//DTD SVG 20010904//EN"
 "http://www.w3.org/TR/2001/REC-SVG-20010904/DTD/svg10.dtd">
<svg version="1.0" xmlns="http://www.w3.org/2000/svg"
 width="1024.000000pt" height="1024.000000pt" viewBox="0 0 1024.000000 1024.000000"
 preserveAspectRatio="xMidYMid meet">
<metadata>
Created by potrace 1.11, written by Peter Selinger 2001-2013
</metadata>
<g transform="translate(0.000000,1024.000000) scale(0.100000,-0.100000)"
fill="#000000" stroke="none">
<path d="M919 10236 c-2 -2 -22 -6 -44 -10 -201 -29 -390 -119 -541 -256 -46
-42 -144 -153 -144 -164 0 -4 -8 -15 -17 -26 -23 -24 -76 -126 -76 -145 0 -8
-4 -15 -8 -15 -8 0 -52 -129 -63 -185 -4 -16 -10 -41 -14 -55 -3 -14 -8 -1919
-9 -4235 -2 -4537 -5 -4273 48 -4434 33 -101 102 -235 154 -299 49 -61 108
-124 147 -157 26 -22 54 -45 61 -52 18 -15 135 -85 167 -100 85 -38 161 -64
230 -79 19 -4 44 -10 55 -12 11 -3 1917 -6 4235 -8 l4215 -3 110 24 c223 47
406 153 555 322 78 89 103 126 93 138 -5 4 -3 5 3 2 17 -10 98 160 125 263 39
145 38 15 36 4400 -1 2313 -6 4216 -10 4230 -4 14 -10 41 -13 60 -14 87 -132
350 -156 350 -4 0 -8 6 -8 13 0 12 -82 111 -121 147 -47 43 -115 97 -138 110
-14 8 -28 18 -31 21 -23 27 -207 104 -305 128 -22 6 -53 14 -70 18 -29 7
-8458 16 -8466 9z"/>
</g>
</svg>
