<?xml version="1.0" standalone="no"?>
<!DOCTYPE svg PUBLIC "-//W3C//DTD SVG 20010904//EN"
 "http://www.w3.org/TR/2001/REC-SVG-20010904/DTD/svg10.dtd">
<svg version="1.0" xmlns="http://www.w3.org/2000/svg"
 width="1024.000000pt" height="1024.000000pt" viewBox="0 0 1024.000000 1024.000000"
 preserveAspectRatio="xMidYMid meet">
<metadata>
Created by potrace 1.11, written by Peter Selinger 2001-2013
</metadata>
<g transform="translate(0.000000,1024.000000) scale(0.100000,-0.100000)"
fill="#000000" stroke="none">
<path d="M4848 10235 c-2 -1 -46 -6 -98 -9 -99 -7 -164 -13 -215 -21 -16 -3
-55 -7 -85 -11 -47 -5 -120 -16 -265 -40 -318 -53 -790 -200 -1129 -350 -174
-77 -464 -228 -590 -307 -278 -173 -471 -313 -697 -507 -148 -128 -386 -365
-509 -509 -30 -35 -60 -69 -65 -75 -28 -29 -236 -303 -288 -378 -219 -318
-443 -743 -567 -1078 -17 -47 -38 -101 -45 -120 -15 -38 -59 -175 -99 -310
-25 -83 -92 -362 -102 -429 -3 -18 -8 -43 -10 -55 -9 -46 -33 -194 -39 -241
-6 -48 -7 -62 -19 -170 -28 -247 -28 -764 -1 -1010 8 -65 34 -268 39 -295 3
-14 7 -41 10 -60 14 -96 68 -344 95 -443 26 -92 26 -107 1 -107 -11 0 -20 -6
-21 -12 -2 -31 2 -176 6 -208 2 -19 7 -60 10 -90 23 -209 116 -501 208 -655
135 -226 284 -383 502 -532 33 -22 75 -62 94 -89 257 -365 681 -798 1062
-1085 145 -109 379 -268 464 -315 11 -6 58 -32 105 -59 429 -245 993 -459
1450 -551 14 -3 32 -7 40 -9 21 -6 295 -53 350 -60 25 -3 63 -7 85 -10 40 -5
68 -7 245 -21 183 -15 656 -9 835 10 17 2 62 7 100 10 73 7 122 14 165 21 14
3 41 7 60 10 19 3 58 10 85 15 28 5 64 11 80 14 127 20 396 90 605 158 569
186 1085 458 1555 822 492 381 918 858 1237 1386 53 88 158 270 158 275 0 2
30 47 66 102 157 233 289 572 348 893 37 200 56 299 70 365 8 39 18 86 21 105
3 19 12 71 20 115 7 44 17 107 20 139 3 33 8 74 10 93 3 18 7 48 9 66 27 196
27 808 1 1012 -2 17 -7 51 -10 78 -13 119 -17 148 -32 232 -8 50 -17 104 -20
120 -2 17 -17 89 -33 160 -16 72 -38 181 -49 243 -60 330 -155 603 -295 842
-27 47 -59 99 -72 115 -12 17 -34 53 -49 80 -160 293 -259 451 -424 675 -31
41 -58 77 -61 80 -3 3 -39 48 -81 100 -222 278 -502 554 -810 798 -147 116
-267 200 -494 342 -114 72 -417 233 -535 284 -36 16 -89 39 -118 52 -152 69
-418 161 -682 238 -157 46 -517 117 -665 131 -33 4 -71 8 -85 10 -14 3 -59 7
-100 11 -41 3 -86 8 -100 11 -27 5 -646 13 -652 8z"/>
</g>
</svg>
